# File generated by ImageToStl.com - Free Image and 3D model conversion tools

mtllib low_poly_big_leaf.mtl

o obj1
v 0.68181354 0.04203237 -0.10726801
v 0.68931562 -0.00153627 -0.02111925
v 0.71642023 0.04132956 -0.02145322
v 0.70807284 0.04202625 -0.06401917
v 0.67805201 0.03735846 0.06881109
v 0.7063126 0.03974194 0.02216808
v 0.63465315 0.04136463 -0.14742389
v 0.64657289 -0.0029191 -0.01880732
v 0.62788349 0.03433684 0.115693
v 0.55271393 0.04076319 -0.22424287
v 0.58119446 -0.00468344 -0.01558584
v 0.53862613 0.02919827 0.20505846
v 0.43875104 0.03927854 -0.27573898
v 0.48020107 -0.00700602 -0.01110119
v 0.41724402 0.02450347 0.26966655
v 0.27549821 0.03867709 -0.37850681
v 0.33895761 -0.00939632 -0.00540955
v 0.2438007 0.01790457 0.38901752
v 0.10219872 0.03748471 -0.40772006
v 0.15901321 -0.01157916 0.00092905
v 0.0687685 0.01498975 0.42712986
v -0.08340114 0.03839969 -0.47797707
v -0.03381097 -0.01242537 0.00670286
v -0.11438668 0.01218977 0.50331032
v -0.23391068 0.03873692 -0.44417205
v -0.21361452 -0.01195209 0.0108075
v -0.25359547 0.01451863 0.46902171
v -0.35424447 0.04113907 -0.44819698
v -0.34831601 -0.00980182 0.01258306
v -0.37310487 0.01666589 0.47516567
v -0.45888475 0.04230849 -0.37329438
v -0.45720127 -0.00720344 0.01303954
v -0.47470638 0.02177923 0.40126213
v -0.54650086 0.04459046 -0.33947259
v -0.54862422 -0.00427709 0.01289125
v -0.56093574 0.02585953 0.36723855
v -0.61646575 0.04525641 -0.24531007
v -0.62254947 -0.00180337 0.01237141
v -0.62703753 0.03153917 0.27223203
v -0.66690195 0.04593978 -0.17828891
v -0.67740548 0.00014537 0.01175078
v -0.67471433 0.03580263 0.20418048
v -0.69831455 0.04511552 -0.08494167
v -0.71015263 0.04310851 0.01240119
v -0.70229709 0.03994765 0.11003959
vn -0.316 0.86911 0.38051
vn -0.5016 0.86481 0.0224
vn -0.77049 0.63729 0.0143
vn -0.73239 0.61109 0.3003
vn -0.3406 0.87681 -0.3394
vn -0.74058 0.60708 -0.28809
vn -0.1594 0.94001 0.3016
vn -0.1947 0.98062 0.0217
vn -0.1873 0.94988 -0.25029
vn -0.0835 0.97257 0.21709
vn -0.1238 0.99202 0.024
vn -0.098 0.98194 -0.16181
vn -0.0598 0.98383 0.16881
vn -0.0674 0.99739 0.0258
vn -0.071 0.99095 -0.11389
vn -0.0305 0.99035 0.13519
vn -0.0455 0.99862 0.0263
vn -0.0355 0.99622 -0.0793
vn -0.0186 0.99282 0.1182
vn -0.0207 0.99942 0.027
vn -0.0228 0.99773 -0.0634
vn 0 0.994 0.1094
vn -0.0049 0.99963 0.0269
vn -0.0011 0.99849 -0.0549
vn 0.0157 0.99403 0.108
vn 0.0151 0.99952 0.0269
vn 0.0144 0.99844 -0.054
vn 0.0331 0.99309 0.1126
vn 0.0369 0.99895 0.027
vn 0.0326 0.99774 -0.0587
vn 0.0569 0.99086 0.1223
vn 0.0565 0.99802 0.0275
vn 0.0567 0.9961 -0.0676
vn 0.0709 0.98791 0.1379
vn 0.0891 0.99563 0.0281
vn 0.0722 0.99396 -0.0826
vn 0.1292 0.97759 0.1662
vn 0.1417 0.98948 0.0291
vn 0.1318 0.98527 -0.109
vn 0.2261 0.9521 0.2059
vn 0.4471 0.8939 0.0324
vn 0.2308 0.962 -0.1459
vn 0.70244 0.69124 0.16961
vn 0.71156 0.70186 0.0328
vn 0.70725 0.69925 -0.10409
vt 0 0
usemtl mat0
f 1/1/1 2/1/2 3/1/3
f 1/1/1 3/1/3 4/1/4
f 2/1/2 5/1/5 6/1/6
f 2/1/2 6/1/6 3/1/3
f 7/1/7 8/1/8 2/1/2
f 7/1/7 2/1/2 1/1/1
f 8/1/8 9/1/9 5/1/5
f 8/1/8 5/1/5 2/1/2
f 10/1/10 11/1/11 8/1/8
f 10/1/10 8/1/8 7/1/7
f 11/1/11 12/1/12 9/1/9
f 11/1/11 9/1/9 8/1/8
f 13/1/13 14/1/14 11/1/11
f 13/1/13 11/1/11 10/1/10
f 14/1/14 15/1/15 12/1/12
f 14/1/14 12/1/12 11/1/11
f 16/1/16 17/1/17 14/1/14
f 16/1/16 14/1/14 13/1/13
f 17/1/17 18/1/18 15/1/15
f 17/1/17 15/1/15 14/1/14
f 19/1/19 20/1/20 17/1/17
f 19/1/19 17/1/17 16/1/16
f 20/1/20 21/1/21 18/1/18
f 20/1/20 18/1/18 17/1/17
f 22/1/22 23/1/23 20/1/20
f 22/1/22 20/1/20 19/1/19
f 23/1/23 24/1/24 21/1/21
f 23/1/23 21/1/21 20/1/20
f 25/1/25 26/1/26 23/1/23
f 25/1/25 23/1/23 22/1/22
f 26/1/26 27/1/27 24/1/24
f 26/1/26 24/1/24 23/1/23
f 28/1/28 29/1/29 26/1/26
f 28/1/28 26/1/26 25/1/25
f 29/1/29 30/1/30 27/1/27
f 29/1/29 27/1/27 26/1/26
f 31/1/31 32/1/32 29/1/29
f 31/1/31 29/1/29 28/1/28
f 32/1/32 33/1/33 30/1/30
f 32/1/32 30/1/30 29/1/29
f 34/1/34 35/1/35 32/1/32
f 34/1/34 32/1/32 31/1/31
f 35/1/35 36/1/36 33/1/33
f 35/1/35 33/1/33 32/1/32
f 37/1/37 38/1/38 35/1/35
f 37/1/37 35/1/35 34/1/34
f 38/1/38 39/1/39 36/1/36
f 38/1/38 36/1/36 35/1/35
f 40/1/40 41/1/41 38/1/38
f 40/1/40 38/1/38 37/1/37
f 41/1/41 42/1/42 39/1/39
f 41/1/41 39/1/39 38/1/38
f 43/1/43 44/1/44 41/1/41
f 43/1/43 41/1/41 40/1/40
f 44/1/44 45/1/45 42/1/42
f 44/1/44 42/1/42 41/1/41
# Vertices: 45, normals: 45, texture coordinates: 1, faces: 56

